<?xml version="1.0" encoding="iso-8859-1"?>
<!-- Generator: Adobe Illustrator 19.0.0, SVG Export Plug-In . SVG Version: 6.00 Build 0)  -->
<svg version="1.1" id="Layer_1" xmlns="http://www.w3.org/2000/svg" xmlns:xlink="http://www.w3.org/1999/xlink" x="0px" y="0px"
	 viewBox="0 0 512 512" style="enable-background:new 0 0 512 512;" xml:space="preserve">
<g>
	<g>
		<circle cx="88.163" cy="214.917" r="13.224"/>
	</g>
</g>
<g>
	<g>
		<path d="M420.379,390.252h-63.017v-62.938h63.017c4.275,0,7.738-3.465,7.738-7.738c0-4.274-3.464-7.738-7.738-7.738H124.105
			c-4.275,0-7.738,3.465-7.738,7.738c0,4.274,3.464,7.738,7.738,7.738h63.016v62.938h-63.016c-4.275,0-7.738,3.465-7.738,7.738
			s3.464,7.738,7.738,7.738h296.274c4.275,0,7.738-3.465,7.738-7.738S424.654,390.252,420.379,390.252z M341.885,390.252H202.597
			v-62.938h139.288V390.252z"/>
	</g>
</g>
<g>
	<g>
		<path d="M420.379,458.349H124.105c-4.275,0-7.738,3.465-7.738,7.738s3.465,7.738,7.738,7.738h296.274
			c4.275,0,7.738-3.465,7.738-7.738S424.654,458.349,420.379,458.349z"/>
	</g>
</g>
<g>
	<g>
		<path d="M456.319,207.181H218.584l211.607-144.06c1.697-1.156,2.864-2.936,3.247-4.952c0.383-2.017-0.051-4.102-1.206-5.799
			L398.883,3.385c-2.404-3.533-7.217-4.448-10.751-2.042L116.42,186.324c-7.27-7.183-17.251-11.628-28.254-11.628
			c-22.179,0-40.223,18.045-40.223,40.223c0,19.533,13.997,35.852,32.485,39.47v2.25v26.707c0,4.274,3.464,7.738,7.738,7.738
			s7.738-3.465,7.738-7.738v-18.969h129.169c0.001,0,0.002,0,0.003,0s0.002,0,0.002,0h118.505c0,0,0.002,0,0.003,0
			c0.001,0,0.002,0,0.003,0h59.25c0.001,0,0.002,0,0.003,0c0.001,0,0.002,0,0.002,0h45.736v157.865c0,4.274,3.464,7.738,7.738,7.738
			s7.738-3.465,7.738-7.738V256.639v-41.719C464.058,210.645,460.594,207.181,456.319,207.181z M390.446,18.491l5.358,7.87
			l-13.229-2.512L390.446,18.491z M364.483,36.166l43.639,8.288l6.963,10.229l-20.66,14.065l-60.831-11.553L364.483,36.166z
			 M315.502,69.513l60.831,11.553l-30.889,21.029l-60.831-11.553L315.502,69.513z M266.521,102.858l60.831,11.553l-30.889,21.028
			l-60.831-11.553L266.521,102.858z M217.539,136.205l60.83,11.553l-30.889,21.029l-60.83-11.553L217.539,136.205z M168.558,169.551
			l60.83,11.553l-38.305,26.078h-63.436c-0.016-0.086-0.039-0.168-0.057-0.253c-0.164-0.815-2.41-7.847-2.433-7.831L168.558,169.551
			z M88.162,239.666c-13.644-0.001-24.744-11.103-24.744-24.747c0.001-13.645,11.102-24.747,24.748-24.747
			c13.319,0,24.699,11.344,24.745,24.661c0,0.029,0.002,0.058,0.002,0.086C112.915,228.354,101.58,239.666,88.162,239.666z
			 M109.67,248.901c0.155-0.099,0.303-0.206,0.457-0.306c6.718-4.392,12.056-10.82,15.169-18.216
			c1.014-2.409,1.788-4.955,2.303-7.518c0.013-0.068,0.032-0.134,0.045-0.202h52.506l26.243,26.243H109.67z M228.282,248.901
			l-26.243-26.243h37.366l26.243,26.243H228.282z M287.536,248.901l-26.243-26.243h37.367l26.243,26.243H287.536z M346.791,248.901
			l-26.243-26.243h37.366l26.243,26.243H346.791z M406.046,248.901l-26.243-26.243h37.367l26.242,26.243H406.046z M448.579,232.179
			l-9.521-9.521h9.521V232.179z"/>
	</g>
</g>
<g>
	<g>
		<path d="M456.316,445.458c-4.275,0-7.738,3.465-7.738,7.738v23.051c0,11.181-9.096,20.277-20.276,20.277H116.183
			c-11.182,0-20.278-9.096-20.278-20.277V314.299c0-4.274-3.464-7.738-7.738-7.738s-7.738,3.465-7.738,7.738v161.948
			c0,19.715,16.04,35.754,35.755,35.754h312.119c19.714,0,35.753-16.039,35.753-35.754v-23.051
			C464.055,448.923,460.591,445.458,456.316,445.458z"/>
	</g>
</g>
<g>
</g>
<g>
</g>
<g>
</g>
<g>
</g>
<g>
</g>
<g>
</g>
<g>
</g>
<g>
</g>
<g>
</g>
<g>
</g>
<g>
</g>
<g>
</g>
<g>
</g>
<g>
</g>
<g>
</g>
</svg>
